<svg xmlns="http://www.w3.org/2000/svg" width="484" height="240" viewBox="0 0 484 240">
  <g transform="translate(0, 0)">
  <rect width="240" height="240" fill="#000000"/>
  <rect x="8" y="8" width="224" height="224" rx="8" fill="#0d0d14"/>
  <rect x="16" y="16" width="208" height="36" rx="6" fill="#140f1a"/>
  <text x="28" y="40" font-family="system-ui, sans-serif" font-size="12" font-weight="600" fill="#e6d4d8">Milk outside a bag of milk (dark)</text>
  <rect x="16" y="60" width="208" height="72" rx="6" fill="#1f1826"/>
  <text x="28" y="82" font-family="system-ui, sans-serif" font-size="11" fill="#e6d4d8">Surface Text</text>
  <text x="28" y="98" font-family="system-ui, sans-serif" font-size="10" fill="#ac3232">Outline color</text>
  <rect x="28" y="108" width="72" height="18" rx="9" fill="#ac3232"/>
  <text x="64" y="120" font-family="system-ui, sans-serif" font-size="9" text-anchor="middle" fill="#0d0d14">Primary</text>
  <rect x="108" y="108" width="48" height="18" rx="4" fill="#ac3232"/>
  <rect x="16" y="140" width="100" height="52" rx="6" fill="#140f1a"/>
  <rect x="24" y="148" width="84" height="36" rx="4" fill="#000000"/>
  <text x="66" y="170" font-family="system-ui, sans-serif" font-size="9" text-anchor="middle" fill="#e6d4d8">Background</text>
  <rect x="124" y="140" width="100" height="52" rx="6" fill="#140f1a"/>
  <circle cx="148" cy="166" r="9" fill="#ac3232"/>
  <circle cx="172" cy="166" r="9" fill="#d97706"/>
  <circle cx="196" cy="166" r="9" fill="#3b82f6"/>
  <rect x="16" y="200" width="208" height="24" rx="4" fill="#ac3232" opacity="0.15"/>
  <text x="120" y="216" font-family="system-ui, sans-serif" font-size="9" text-anchor="middle" fill="#e6d4d8">Surface Tint Overlay</text>
</g>
  <rect x="240" y="0" width="4" height="240" fill="#888"/>
  <g transform="translate(244, 0)">
  <rect width="240" height="240" fill="#ffffff"/>
  <rect x="8" y="8" width="224" height="224" rx="8" fill="#f5e9e9"/>
  <rect x="16" y="16" width="208" height="36" rx="6" fill="#f0dfdf"/>
  <text x="28" y="40" font-family="system-ui, sans-serif" font-size="12" font-weight="600" fill="#0d0d14">Milk outside a bag of milk (light)</text>
  <rect x="16" y="60" width="208" height="72" rx="6" fill="#e8d4d8"/>
  <text x="28" y="82" font-family="system-ui, sans-serif" font-size="11" fill="#0d0d14">Surface Text</text>
  <text x="28" y="98" font-family="system-ui, sans-serif" font-size="10" fill="#ac3232">Outline color</text>
  <rect x="28" y="108" width="72" height="18" rx="9" fill="#ac3232"/>
  <text x="64" y="120" font-family="system-ui, sans-serif" font-size="9" text-anchor="middle" fill="#0d0d14">Primary</text>
  <rect x="108" y="108" width="48" height="18" rx="4" fill="#ac3232"/>
  <rect x="16" y="140" width="100" height="52" rx="6" fill="#f0dfdf"/>
  <rect x="24" y="148" width="84" height="36" rx="4" fill="#ffffff"/>
  <text x="66" y="170" font-family="system-ui, sans-serif" font-size="9" text-anchor="middle" fill="#0d0d14">Background</text>
  <rect x="124" y="140" width="100" height="52" rx="6" fill="#f0dfdf"/>
  <circle cx="148" cy="166" r="9" fill="#ac3232"/>
  <circle cx="172" cy="166" r="9" fill="#d97706"/>
  <circle cx="196" cy="166" r="9" fill="#2563eb"/>
  <rect x="16" y="200" width="208" height="24" rx="4" fill="#ac3232" opacity="0.15"/>
  <text x="120" y="216" font-family="system-ui, sans-serif" font-size="9" text-anchor="middle" fill="#0d0d14">Surface Tint Overlay</text>
</g>
</svg>